<?xml version="1.0" encoding="UTF-8"?>
<svg version="1.1" xmlns="http://www.w3.org/2000/svg" width="1024" height="1024">
<path d="M0 0 C337.92 0 675.84 0 1024 0 C1024 337.92 1024 675.84 1024 1024 C686.08 1024 348.16 1024 0 1024 C0 686.08 0 348.16 0 0 Z " fill="#FEFEFE" transform="translate(0,0)"/>
<path d="M0 0 C13.45890803 10.24096172 25.66395747 22.09363799 37.8359375 33.8046875 C51.28437393 46.48404797 66.53447827 56.88137472 83.05078125 65.125 C84.13842773 65.66979004 84.13842773 65.66979004 85.24804688 66.22558594 C107.90700778 77.37347187 131.93188472 82.34666563 157.11328125 82.25 C158.12455078 82.25386719 159.13582031 82.25773437 160.17773438 82.26171875 C165.72175939 82.25457899 171.12878361 81.97340965 176.63696289 81.36083984 C180.66923938 80.96687008 184.68930639 80.90139918 188.73828125 80.875 C189.54072266 80.854375 190.34316406 80.83375 191.16992188 80.8125 C198.10725497 80.76719497 202.53320039 82.38205941 208.30078125 86.375 C212.40901685 90.4832356 214.16504737 94.54642473 214.48828125 100.3125 C213.92693507 114.66343707 205.18816027 127.58131814 195.05078125 137.125 C182.35325708 147.77234051 167.85685925 154.45384718 152.05078125 159.125 C151.04402344 159.42277344 150.03726562 159.72054687 149 160.02734375 C98.96781643 173.63555606 46.14769373 156.2376977 2.6652832 131.5546875 C-6.64874333 126.07944293 -15.3265066 119.58918598 -23.96875 113.125 C-35.80046904 104.28493727 -46.58931291 96.47138699 -61.94921875 97.125 C-69.96956555 112.88672501 -67.82122253 130.22761886 -62.54296875 146.65234375 C-52.0810661 177.30651713 -33.79640771 204.59251941 -12.94921875 229.125 C-12.04158299 230.20696106 -11.1340362 231.28899676 -10.2265625 232.37109375 C2.52795729 247.49325855 16.33073548 261.56981953 30.33007812 275.53466797 C32.94648765 278.14566355 35.55743671 280.7620356 38.16796875 283.37890625 C39.85514782 285.06542528 41.54263667 286.75163449 43.23046875 288.4375 C44.38227127 289.59233887 44.38227127 289.59233887 45.55734253 290.77050781 C49.6775989 294.87309425 53.87870232 298.81775669 58.29196167 302.60429382 C60.002115 304.08292231 61.66508328 305.60072198 63.31640625 307.14453125 C63.81398438 307.60923828 64.3115625 308.07394531 64.82421875 308.55273438 C65.82665592 309.49285071 66.82657598 310.4356568 67.82421875 311.38085938 C70.41068383 313.7878969 72.76656034 315.77221377 76.05078125 317.125 C90.65271424 306.1004281 103.60461761 293.64577792 116.55078125 280.75 C117.48277344 279.82276123 118.41476562 278.89552246 119.375 277.94018555 C123.94413691 273.35992249 128.36743912 268.72415121 132.58007812 263.81396484 C134.47018825 261.64335032 136.48557913 259.62855429 138.55078125 257.625 C141.9217819 254.29379193 145.09592155 250.87388372 148.1796875 247.27734375 C150.38157954 244.74447838 152.65273951 242.28167478 154.92578125 239.8125 C158.99815369 235.34760974 162.85706723 230.75891845 166.6484375 226.0546875 C168.83595417 223.38698424 171.07548187 220.7808085 173.34375 218.18237305 C180.3496196 210.1375546 186.79592302 201.76338894 193.05078125 193.125 C193.61587402 192.34850098 194.1809668 191.57200195 194.76318359 190.77197266 C203.31352686 178.97245173 211.09441985 166.93134885 218.05078125 154.125 C218.42960449 153.4345459 218.80842773 152.7440918 219.19873047 152.03271484 C228.89166499 134.19409501 237.21753212 112.98956493 232.14453125 92.45703125 C228.47504334 83.17746087 223.08253455 76.5035423 214.05078125 72.125 C197.647331 65.62551971 179.28771841 66.2651378 162.05078125 68.125 C162.05078125 67.465 162.05078125 66.805 162.05078125 66.125 C162.71078125 66.125 163.37078125 66.125 164.05078125 66.125 C164.28410156 65.57457031 164.51742188 65.02414062 164.7578125 64.45703125 C167.77949372 59.00705032 172.75925744 54.61612956 177.05078125 50.125 C177.63649902 49.51060059 178.2222168 48.89620117 178.82568359 48.26318359 C201.52803106 24.60405541 230.76901664 4.91128774 264.65234375 3.7890625 C293.98977506 3.41002057 318.57599026 10.09803703 340.16796875 31.08984375 C361.14789931 52.52585976 369.59724923 82.71553509 369.40209961 111.98999023 C369.20358563 121.93436495 368.24223236 131.42657802 366.05078125 141.125 C365.86273926 141.96772461 365.67469727 142.81044922 365.48095703 143.67871094 C358.69917033 173.03947721 345.02845826 200.37191149 328.05078125 225.125 C327.64005371 225.72860352 327.22932617 226.33220703 326.80615234 226.95410156 C318.18865702 239.55237301 308.58949548 251.49594975 298.24609375 262.71875 C296.41356188 264.72736145 294.63221227 266.76460948 292.85595703 268.82250977 C289.36412958 272.81616485 285.71944584 276.61744021 281.97265625 280.37109375 C281.3205719 281.0265065 280.66848755 281.68191925 279.99664307 282.35719299 C278.62650886 283.73235046 277.25505327 285.10619255 275.88232422 286.47875977 C273.81447464 288.54879215 271.754766 290.62669673 269.6953125 292.70507812 C263.14375974 299.28393251 256.58530539 305.58996682 249.29443359 311.35131836 C246.56114103 313.51207684 244.03163363 315.80744472 241.48828125 318.1875 C236.51846214 322.74961118 231.37993472 326.99154069 226.05078125 331.125 C225.11105469 331.85976563 224.17132812 332.59453125 223.203125 333.3515625 C146.8100728 392.65034133 146.8100728 392.65034133 103.05078125 404.125 C102.43517334 404.29789551 101.81956543 404.47079102 101.18530273 404.64892578 C86.45804941 407.93362714 71.61638403 404.87758053 58.05078125 399.125 C56.61599818 398.55049955 55.1811018 397.97628201 53.74609375 397.40234375 C41.85588501 392.4955693 30.78306659 386.12112488 19.68701172 379.65332031 C17.43554469 378.3480616 15.17305852 377.06892873 12.8984375 375.8046875 C-14.21363877 360.56378585 -39.74553755 341.57770285 -63.94921875 322.125 C-64.87734375 321.37992188 -65.80546875 320.63484375 -66.76171875 319.8671875 C-78.2547938 310.54576908 -89.40466525 300.87046772 -100.20263672 290.75390625 C-102.06880106 289.01347453 -103.9477334 287.28754483 -105.828125 285.5625 C-114.97699021 277.13340753 -123.65385971 268.39599082 -131.94921875 259.125 C-132.46436035 258.54927246 -132.97950195 257.97354492 -133.51025391 257.38037109 C-176.96063946 208.46207185 -209.52551257 147.05870789 -205.94921875 80.125 C-203.45276926 49.53946723 -190.84480095 20.65390977 -168.94921875 -0.875 C-168.12679687 -1.69613281 -167.304375 -2.51726562 -166.45703125 -3.36328125 C-120.38916977 -47.08998911 -47.3546386 -35.0468738 0 0 Z " fill="#39BAC3" transform="translate(426.94921875,399.875)"/>
<path d="M0 0 C22.05118963 17.00405086 36.07371118 41.84108623 40.36328125 69.45703125 C42.4475728 86.2453196 41.59213763 103.72590705 37.8671875 120.2109375 C37.67914551 121.05366211 37.49110352 121.89638672 37.29736328 122.76464844 C30.51557658 152.12541471 16.84486451 179.45784899 -0.1328125 204.2109375 C-0.54354004 204.81454102 -0.95426758 205.41814453 -1.37744141 206.04003906 C-9.99493673 218.63831051 -19.59409827 230.58188725 -29.9375 241.8046875 C-31.77003187 243.81329895 -33.55138148 245.85054698 -35.32763672 247.90844727 C-38.81946417 251.90210235 -42.46414791 255.70337771 -46.2109375 259.45703125 C-46.86302185 260.112444 -47.5151062 260.76785675 -48.18695068 261.44313049 C-49.55708489 262.81828796 -50.92854048 264.19213005 -52.30126953 265.56469727 C-54.36911911 267.63472965 -56.42882775 269.71263423 -58.48828125 271.79101562 C-65.03983401 278.36987001 -71.59828836 284.67590432 -78.88916016 290.43725586 C-81.62245272 292.59801434 -84.15196012 294.89338222 -86.6953125 297.2734375 C-91.66513161 301.83554868 -96.80365903 306.07747819 -102.1328125 310.2109375 C-103.07253906 310.94570313 -104.01226563 311.68046875 -104.98046875 312.4375 C-181.37352095 371.73627883 -181.37352095 371.73627883 -225.1328125 383.2109375 C-226.13634766 383.50484375 -226.13634766 383.50484375 -227.16015625 383.8046875 C-229.60476258 384.30813118 -231.88922213 384.3062479 -234.3828125 384.2734375 C-235.27484375 384.26441406 -236.166875 384.25539063 -237.0859375 384.24609375 C-238.09914063 384.22869141 -238.09914063 384.22869141 -239.1328125 384.2109375 C-238.4728125 383.6953125 -237.8128125 383.1796875 -237.1328125 382.6484375 C-235.6478125 381.441875 -235.6478125 381.441875 -234.1328125 380.2109375 C-233.4934375 379.70175781 -232.8540625 379.19257812 -232.1953125 378.66796875 C-224.57948491 372.36471751 -220.76701807 365.67983862 -218.1328125 356.2109375 C-217.854375 355.29441406 -217.854375 355.29441406 -217.5703125 354.359375 C-215.64040189 344.88213542 -216.44399078 334.23601297 -221.5390625 325.9140625 C-228.44171457 316.47175542 -238.00725284 309.37335155 -247.1328125 302.2109375 C-248.80061641 300.87902696 -250.46758451 299.5460672 -252.1328125 298.2109375 C-250.80619433 294.23108298 -248.89547233 293.3505757 -245.5078125 290.8984375 C-233.19481698 281.6955744 -222.5017885 270.66258301 -211.6328125 259.8359375 C-210.70090088 258.9087793 -209.76898926 257.98162109 -208.80883789 257.02636719 C-204.2396187 252.44602265 -199.81623005 247.81017663 -195.60351562 242.89990234 C-193.7134055 240.72928782 -191.69801462 238.71449179 -189.6328125 236.7109375 C-186.26181185 233.37972943 -183.0876722 229.95982122 -180.00390625 226.36328125 C-177.80201421 223.83041588 -175.53085424 221.36761228 -173.2578125 218.8984375 C-169.18544006 214.43354724 -165.32652652 209.84485595 -161.53515625 205.140625 C-159.34763958 202.47292174 -157.10811188 199.866746 -154.83984375 197.26831055 C-147.83397415 189.2234921 -141.38767073 180.84932644 -135.1328125 172.2109375 C-134.56771973 171.43443848 -134.00262695 170.65793945 -133.42041016 169.85791016 C-124.87006689 158.05838923 -117.0891739 146.01728635 -110.1328125 133.2109375 C-109.75398926 132.5204834 -109.37516602 131.8300293 -108.98486328 131.11865234 C-99.29192876 113.28003251 -90.96606163 92.07550243 -96.0390625 71.54296875 C-99.70855041 62.26339837 -105.1010592 55.5894798 -114.1328125 51.2109375 C-130.53626275 44.71145721 -148.89587534 45.3510753 -166.1328125 47.2109375 C-166.1328125 46.5509375 -166.1328125 45.8909375 -166.1328125 45.2109375 C-165.4728125 45.2109375 -164.8128125 45.2109375 -164.1328125 45.2109375 C-163.89949219 44.66050781 -163.66617188 44.11007812 -163.42578125 43.54296875 C-160.40410003 38.09298782 -155.42433631 33.70206706 -151.1328125 29.2109375 C-150.54709473 28.59653809 -149.96137695 27.98213867 -149.35791016 27.34912109 C-110.87398455 -12.75669308 -49.63758802 -35.10951348 0 0 Z " fill="#AFDCB6" transform="translate(755.1328125,420.7890625)"/>
<path d="M0 0 C15.94461934 11.92946353 27.74953492 30.63613879 30.76928711 50.48022461 C33.00917233 74.35863403 27.69902624 95.85216927 12.94506836 114.96069336 C-0.29546265 130.29308564 -19.64142833 141.0952175 -40.03979492 142.70141602 C-64.29772681 143.66452026 -83.22908839 138.26268334 -102.23071289 122.48022461 C-102.87395508 121.95170898 -103.51719727 121.42319336 -104.17993164 120.87866211 C-116.43766318 109.7352698 -126.16507555 90.96175047 -127.46655273 74.49658203 C-128.51845743 48.63757477 -124.21996922 29.61359656 -107.23071289 9.48022461 C-78.74144777 -20.6234322 -33.25208043 -23.57735188 0 0 Z " fill="#39BAC3" transform="translate(417.230712890625,206.519775390625)"/>
<path d="M0 0 C15.50084536 12.21278725 26.4256653 29.18053846 29.8359375 48.796875 C31.41008893 71.32135351 28.01910138 91.85404396 12.91796875 109.49609375 C12.23089844 110.25535156 11.54382813 111.01460938 10.8359375 111.796875 C10.15917969 112.56644531 9.48242188 113.33601563 8.78515625 114.12890625 C-3.12503646 126.91004541 -20.75049123 135.36037813 -38.29296875 136.1328125 C-59.28984781 136.48391163 -78.11741162 132.20670903 -94.1640625 117.796875 C-94.98519531 117.06855469 -95.80632813 116.34023438 -96.65234375 115.58984375 C-111.10582344 102.01366176 -118.86773432 83.88555079 -120.44921875 64.2578125 C-120.97365152 44.0557503 -113.8964948 24.83639396 -100.5234375 9.7109375 C-73.62436215 -18.34095537 -31.60215535 -22.00446372 0 0 Z " fill="#AFDCB6" transform="translate(712.1640625,249.203125)"/>
<path d="M0 0 C0 0.99 0 1.98 0 3 C-0.66 3.66 -1.32 4.32 -2 5 C7.24 5 16.48 5 26 5 C26 5.33 26 5.66 26 6 C24.69546875 6.06058594 23.3909375 6.12117188 22.046875 6.18359375 C12.6801898 6.62898626 3.33662921 7.10808623 -6 8 C-6 7.34 -6 6.68 -6 6 C-5.34 6 -4.68 6 -4 6 C-3.71125 5.38125 -3.4225 4.7625 -3.125 4.125 C-2 2 -2 2 0 0 Z " fill="#A2D5AA" transform="translate(595,460)"/>
<path d="M0 0 C0.66 0.33 1.32 0.66 2 1 C0.75965588 2.32162881 -0.49268626 3.63200453 -1.75 4.9375 C-2.44609375 5.66839844 -3.1421875 6.39929688 -3.859375 7.15234375 C-6.00599725 9.00517646 -7.23532932 9.60771565 -10 10 C-8.78934835 6.36804504 -7.46308874 5.57103808 -4.4375 3.3125 C-3.61121094 2.68988281 -2.78492188 2.06726563 -1.93359375 1.42578125 C-1.29550781 0.95527344 -0.65742187 0.48476563 0 0 Z " fill="#A4D5A9" transform="translate(513,709)"/>
<path d="M0 0 C0.33 0.66 0.66 1.32 1 2 C-0.12104533 3.31587941 -1.24696965 4.62760353 -2.375 5.9375 C-3.00148438 6.66839844 -3.62796875 7.39929688 -4.2734375 8.15234375 C-6 10 -6 10 -8 11 C-6.63629701 8.00779732 -5.05091917 5.70973471 -2.875 3.25 C-2.33617187 2.63640625 -1.79734375 2.0228125 -1.2421875 1.390625 C-0.62730469 0.70226562 -0.62730469 0.70226562 0 0 Z " fill="#A6D7AC" transform="translate(603,615)"/>
</svg>
